<svg xmlns="http://www.w3.org/2000/svg" viewBox="0 0 48 48"><g><path d="M13.457,44.233a1,1,0,0,1-.707-.293L4.012,35.2a1,1,0,0,1,.6-1.7l9.83-1.092a1,1,0,0,1,1.1,1.105l-1.092,9.829a1,1,0,0,1-.994.889Z" fill="#76b5b5"></path> <path d="M29.386,18.544a22.758,22.758,0,0,1-6.05-11.631c-.02.009-.041.016-.062.026-3.582-1.319-8.717-1.171-11.617,1.73a1,1,0,0,0,.413,1.663,8.554,8.554,0,0,1,4.168,3.377c-5.392,8.937-2.774,19.49-2.658,19.944a1,1,0,0,0,.719.719,29.483,29.483,0,0,0,6.829.755c4.986,0,11.767-1.179,17.063-6.477a15.4,15.4,0,0,0,2.616-3.5A23.975,23.975,0,0,1,29.386,18.544Z" fill="#335262"></path> <path d="M41.955,6.7a1,1,0,0,0-.672-.663c-.421-.124-10.194-2.934-17.947.872a22.758,22.758,0,0,0,6.05,11.631,23.975,23.975,0,0,0,11.421,6.6C45.132,17.274,42.107,7.194,41.955,6.7Z" fill="#76b5b5"></path> <circle id="color_nooutline" data-name="color nooutline" cx="33" cy="11" r="2" fill="#fff"></circle></g></svg>